<?xml version="1.0" encoding="utf-8"?>

<!DOCTYPE svg PUBLIC "-//W3C//DTD SVG 1.1//EN" "http://www.w3.org/Graphics/SVG/1.1/DTD/svg11.dtd">
<svg version="1.1" id="Layer_1" xmlns="http://www.w3.org/2000/svg" xmlns:xlink="http://www.w3.org/1999/xlink" x="0px" y="0px"
	 viewBox="-75 -66.367 2070 1831.734" enable-background="new -75 -66.367 2070 1831.734" xml:space="preserve">
<path d="M1607.44,0h23.06c22.59,1.14,45.12,4.65,66.68,11.62c22.98,7.27,44.8,18.04,64.82,31.43c12.37,7.86,23.71,17.62,32.11,29.72
	c22.71,32.31,43.78,65.84,61.83,100.98c19.14,37.31,35.23,76.34,45.9,116.94c11.77,43.6,17.17,88.69,18.16,133.77v17.03
	c-0.74,8.4-6.98,14.44-11.65,20.89c-22.21,29.41-44.96,58.4-67.11,87.86c-7.11,9.61-13.95,19.42-21.24,28.9
	c-2.27,3.23-6.71,2.94-9.51,5.44c-6.47,4.82-8.08,13.18-12.18,19.71c-5.11,8.33-11.53,15.88-18.77,22.43
	c3.23-16.77,5.6-33.73,6.88-50.76c0.98-14.43,0.07-28.99-3.1-43.11c-0.62-0.37-1.87-1.12-2.5-1.49c-4.99,5.27-4.84,12.82-5.42,19.59
	c-0.97,10.73-1.64,21.47-2.95,32.17c-3.18,21.38-12.41,41.38-24.01,59.46c-2.35,3.36-6.38,5.37-10.4,5.77
	c-14.34-2.7-28.69-5.4-42.87-8.84c-6.89-1.97-14.29-2.62-20.51-6.42c-3.68-1.79-6.83-4.69-10.77-5.86
	c-0.88,2.05-2.77,4.03-2.04,6.43c0.92,2.63,3.19,4.48,5.39,6.08c5.79,3.97,12.07,7.19,18.3,10.42l0.5,1.2
	c-10.4,1.95-20.87,3.48-31.24,5.54c12.91,24.84,17.18,53.61,13.79,81.26c-0.3,2.1,0.27,4.52-1.18,6.31
	c3.26,0.98,6.97,1.02,9.73,3.31c3.69,2.69,5.14,7.39,5.6,11.75c0.31,10.48,1.27,21.22-1.63,31.46
	c-6.79,21.27-14.96,42.06-22.89,62.92c-3.77,9.89-7.36,19.85-11.29,29.68c-0.39,1.11-0.68,2.24-0.88,3.41
	c1.01,0.55,2.04,1.11,3.09,1.68c5.34-7.84,11.03-15.47,15.95-23.6c2.83-5.15,3.06-11.89,8.28-15.54c2.02-2.34,5.46-1.36,7.23,0.79
	c1.56,1.48,3.32,3.26,3.1,5.63c-0.14,9.7,0.82,19.7-2.37,29.05c-9.28,27.02-20.33,53.37-30.77,79.94c-0.93,2.65-3.71,5.01-2.59,8.03
	c6.92-7.37,11.93-16.7,20.39-22.54c2.64-1.67,6.22-4.12,9.18-1.7c4.12,2.67,8.43,6.94,8.01,12.26c-0.06,8.24-1.67,16.52-5,24.07
	c-5.53,12.71-13.37,24.22-19.84,36.43c-0.94,2.33-2.79,4.95-1.64,7.53c2.68,5.89,3.92,12.6,2.68,19.01
	c-0.6,6.5-3.03,12.62-4.44,18.96c-6.08,24.48-12.27,48.95-17.85,73.55c0.63,0.07,1.88,0.21,2.5,0.27c3.56-3.35,7.56-6.19,11.11-9.55
	c1.16,0.24,2.35,0.5,3.55,0.8c-0.01,1.65,0.03,3.32,0.1,5.01l0.52,0.76c0.09,5.38,1.21,11.05-0.93,16.19
	c-5.94,16.29-11.94,32.7-20.75,47.71c-32.11,54.69-64.6,109.15-97.61,163.3c-8.56,13.79-16.74,27.83-25.67,41.4
	c-11.01,16.38-23.39,31.78-35.52,47.34c-6.1,7.59-13.93,13.5-20.77,20.38c-4.15,3.97-4.34,10.09-6.8,15
	c-9.71,9.21-19.52,19.63-32.97,23.02c-3.36,0.41-5.15,3.47-7.18,5.78c2.4,2.19,4.45,5.06,7.69,6.1c2.74,1.02,5.3,2.46,7.91,3.81
	c-2.24,1.98-3.8,4.83-6.71,5.96c-13.5,5.85-27.21,11.2-40.84,16.74c0.69,4.38,4.02,9.44,0.94,13.6c-5.51,1.73-11.34,1.28-17.02,1.64
	c-46.7,2.35-93.38,4.06-139.99,7.78c-24.97,2.02-49.98,3.83-75.04,4.71c-39.18,1.99-75.89,19.07-107.72,41.12
	c-7.08,0.33-14.1-1.73-21.16-0.82c-16.84,6.52-30.96,19.41-39.5,35.28c-5.35,10.41-14.46,18.36-24.45,24.19
	c-6.35,3.89-13.36,6.53-19.69,10.46c-3.61,2.11-7.14,4.35-10.79,6.4c-3.16-15.47-0.27-32.03,8.09-45.44
	c0.82-1.14,1.13-2.39,0.9-3.76c-17.92-1.69-35.84,7.11-46.8,21.12c-5.61,5.22-7.85,13.05-13.87,17.93
	c-9.32,8.06-22.2,9.69-34.07,9.93c-7.12-0.46-13.71,2.69-20.51,4.29h-3.97c-2.55-3.49-5.1-8.21-3.1-12.52
	c3.55-8.21,9.68-15.03,12.99-23.36c1.99-5.1-4.22-8.18-8.28-8.86c-9.04-0.19-18.42-0.69-27.1,2.36c-5.79,1.95-10.7,6.05-14.02,11.14
	c-4.72-1.19-8.12-6.08-7.26-10.94c1.11-6.38,4.27-12.12,6.93-17.94c-0.35-0.68-1.04-2.05-1.39-2.73
	c-9.44,3.91-19.06,7.42-28.41,11.54c-4.36-2.84-5.3-8.73-3.16-13.24c6.65-14.57,17.44-27.22,30.77-36.09
	c4.44-3.09,9.35-5.42,13.84-8.42c-0.01-0.58-0.02-1.73-0.03-2.31c-5.06,0.74-10.06,2.28-14.38,5.07c-4.36,2.64-9.42,0.05-13.73-1.37
	c0.82-3.04,1.45-6.28,3.39-8.84c5.32-7.25,11.04-14.21,17.07-20.87c2.44-2.21,5.19-4.36,8.53-4.93c11.25-1.89,22.64-2.74,33.94-4.16
	c12.44-1.14,24.94-4.12,35.78-10.49c2.52-2.09,3.57-5.3,4.71-8.23c-1.77-2.57-4.89-3.4-7.41-4.97c-14.85-8.54-30.4-15.9-44.54-25.62
	c-11.67-8.07-21.48-18.41-31.51-28.34c-5.51-5.27-10.99-11.07-18.34-13.69c-5.64-1.87-11.66-1.44-17.47-2.17
	c-25.69-2.23-51.55-2.54-77.32-1.7c-13,0.19-25.98,0.47-38.95,1.07c-8.86,0.6-18.31-1.02-26.58,3.02
	c-18.12,8.83-35.53,19.17-54.25,26.71c-10.94,4.16-22.79,2.89-34.16,4.3c-8.49,0.56-17,3.42-23.63,8.87
	c-7.16,5.55-16.34,8.18-25.36,7.43c-9.37,0.32-17.83-4.82-27.1-5.07c-6.73,0.36-11.19,5.91-16.25,9.58
	c0.24-5.11-0.4-11.14,3.45-15.12c8.42-10.13,17.29-19.92,26.9-28.94c2.28-2.44,5.82-2.61,8.93-2.85c5.05-0.3,9.91-1.87,14.95-2.26
	l-0.39-1.54c-7.43-4.85-14.53-10.33-22.39-14.46c-7.64-1.48-15.63-0.86-23.17,0.96c-2.79,0.9-6.25,2.05-7.1,5.23
	c-1.13,3.43-1.82,7.04-3.57,10.26c-4.97,10.23-15.8,17.77-27.3,17.67c-4.18-2.24-8.99-4.21-13.8-3.08c-6.4,1.2-11.33,5.74-16.22,9.7
	c-1.65-3.3-3.09-6.95-2.4-10.69c0.95-5.46,4.57-9.86,7.31-14.51c-5.22-1.09-10.48-2.12-15.82-2.28c-5.98-0.19-11.64,2.08-17.54,2.59
	c0.56-8.57,0.46-18.73,7.48-24.88c2.85-3.16,8.01-3.14,10.17-7.02c6.27-10.41,11.52-21.43,18.22-31.58
	c4.43-6.83,12.55-10.77,20.62-10.67c5.97-0.36,12.75,2.42,17.92-1.85c6.39-6.02,14.13-11.02,22.91-12.55
	c10.79-2.23,22.03,0.34,31.84,5c12.29,5.41,24.64,11.74,38.26,12.74c65.57-4.36,131.48-15.13,193.16-38.68
	c1.44-0.47,2.66-1.41,3.91-2.24c-10.51-15.92-22.01-31.21-31.14-48c-19.13-34.2-31.81-72.16-35.72-111.2
	c-5.12-42.65-2.93-86.24,7.18-128.01c1.37-5.9,3.58-11.97,1.98-18.07c-7.61-28.04-25.57-52.88-48.91-69.99
	c-5.21,7.24-9.2,15.49-15.67,21.75c-2.77,2.98-6.9,3.81-10.09,6.12c-4.57,4.99-7.82,11.44-13.65,15.15c-4.76,3.35-11.3,0-15.72,4.14
	c-15.18,12.41-30.05,25.47-42.2,40.97c-6.7,8.41-13.05,17.17-18.28,26.58c-3.62,6.12-4.4,14.05-0.83,20.38
	c4.86,6.98,2.69,16.07,0.88,23.75c-8.41,33.2-18.3,66.06-29.75,98.35c-3.71-8.14-7.77-16.14-12.02-24.01
	c-3.03,6.83-6.94,13.25-10.13,20.02c-8.59-10.08-21.16-16.9-26.7-29.39c-2.27-4.4-1.97-9.41-2.08-14.19
	c-1.07,2.4-2.52,4.62-3.48,7.09c-3.09-1.65-5.97-4.17-6.89-7.66c-2.41-8.86-0.2-18.01-0.37-27c1.14-28.84,4.71-57.81,13.25-85.47
	c4.06-13.43,8.93-26.61,14.31-39.57c4.23-10.51,9.36-20.63,13.6-31.14c9.52-24.35,13.91-50.65,13.15-76.78
	c0.31-17.93-3.62-36.17-12.95-51.61c-7.32-12.68-18-22.89-26.24-34.91c-27.2-37.59-44.38-81.31-57.56-125.5
	c-3.64-13.29-8.96-26.03-14.11-38.79c-4.38-11.45-11.89-21.77-21.94-28.88c-11.47-8.23-25.06-12.88-38.7-16.04
	c-5.96-1.54-12.13-2.13-18.28-2.11c-17.25,0.5-33.96,5.3-50.96,7.77c-18.83,2.56-37.98,3.51-56.93,1.57
	c-28.11-2.63-55.57-12.14-79.28-27.49c-7.7-4.72-13.96-11.34-21.17-16.71c-4.57-3.44-9.1-6.97-14.1-9.77
	C8.37,577.63,1.85,562.97,0,549.44v-8c2.43-13.08,9.57-24.66,16.74-35.65c6.04-9.24,13.52-17.52,18.72-27.31
	c3.26-6.66,5.21-13.88,8.58-20.5c4.65-9.96,11.01-18.95,16.9-28.19c25.76-39.54,53.8-78.09,88.43-110.41
	c24.41-22.83,52.1-42.18,82-57.13c30.81-15.45,63.84-26.31,97.63-32.97c5.58-0.58,10.25-4.51,12.98-9.24
	c17.92-32.18,35.02-64.81,52.9-97c5.11-8.8,10.92-17.17,16.85-25.44c2.13-2.71,4.49-5.66,7.95-6.64c3.53-1.05,7.31,0.9,9.62,3.49
	c2.86,4.87,0.93,10.65,1.13,15.95c4.3-11.29,9.81-22.06,14.97-32.98c9.48-19.61,18.86-39.28,28.41-58.85
	c2.19-2.48,5.52-3.63,8.19-5.54c2.25-1.12,5.14-3.4,7.59-1.55c3.59,2.85,5.24,7.33,6.59,11.56c1.5,4.78-0.17,9.73-1.72,14.26
	c2.99,0.38,6.57,0.03,8.94,2.27c1.11,2.37,0.23,5.02-0.33,7.42c-9.39,32-19.03,63.93-28.46,95.92c-0.57,2.31-0.33,4.7,0.12,7.01
	c3.73-4.69,7.24-9.56,10.88-14.33c1.36-1.67,2.28-3.92,4.43-4.74c1.41,2.83,2.64,5.89,2.49,9.12c-0.02,5.24-3.28,9.65-4.27,14.68
	c4.68-0.2,9.62-0.67,14.01,1.33c3.77,1.7,6.31,5.43,7.09,9.43c1.6,7.87,0.2,16.09-2.61,23.53c-2.35,6.61-4.57,14.05-1.72,20.88
	c1.03,3.34,3.96,5.79,4.49,9.31c0.83,5.26-0.4,10.55-0.51,15.82c-0.09,4.18-1.08,8.25-1.69,12.36
	c29.37,12.4,56.25,31.24,76.41,56.07c25.49,30.92,40.34,69.09,49.76,107.67c1.75,8.45,4.28,16.78,5.3,25.37
	c14.84,2.73,29.98,3.75,44.81,6.74c37.5,6.43,73.81,23.27,100.5,50.77c5.17,4.79,8.99,11.16,15.45,14.43
	c8.9,5.18,19.46,5.14,29.31,6.97c13.75,1.58,27.4,4.2,41.18,5.45l0.66,0.5c4.16,0.04,8.23,1,12.37,1.37
	c26.6,3.75,53.3,6.71,79.9,10.45c48.99,7.01,97.77,17.29,144.16,34.82c18.47,7.21,37.04,14.68,53.65,25.67
	c29.78,19.6,53.3,47.15,73.47,76.22c23.59,34.18,40.23,73.06,49.06,113.63c5.62,24.92,7.53,50.45,10.97,75.7
	c2.49,18.56,4.44,37.16,6.74,55.75c1.7,14.99,1.16,30.08,1.6,45.14c0.95,17.33,1.72,34.7,2.6,52.06
	c0.88,23.26,0.34,46.66-2.41,69.75c-3.73,44.18-14.23,87.42-25.45,130.21c-11.05,42.86-23.19,85.42-34.72,128.15
	c-0.8,4.19-3.11,8.34-1.85,12.7c8.94-8.15,16.83-17.4,23.73-27.32c38.55-53.08,64.25-114.73,79.05-178.44
	c10.48-43.19,15.05-87.73,14.14-132.16c-0.03-26.18-2.57-52.31-7.02-78.1c-7.85-43.39-15.53-86.84-25.27-129.86
	c-9.8-44.03-21.5-87.66-35.6-130.52c-12.99-39.26-28.61-77.65-39.77-117.5c-11.72-42.34-21.13-85.87-20.5-130
	c0.06-23.15,3.25-46.18,8.21-68.78c5.31-21.68,11.33-43.2,18.13-64.47c5.48-16.97,10.97-34.01,18.42-50.24
	c9.61-21.39,21.67-41.63,35.19-60.76c21.73-30.49,46.46-58.8,73.31-84.87c30.01-28.65,63.8-53.89,101.65-71.22
	C1522.89,10.65,1565.12,1.51,1607.44,0z"/>
</svg>
